<svg width="440" height="91" viewBox="0 0 440 91" fill="none" xmlns="http://www.w3.org/2000/svg">
<path d="M109.338 33.6V32H118.178L125.458 55.96L132.338 32H141.418V33.6H138.698L140.138 58.4H142.538V60H131.818V58.4H134.098L132.858 38.6L126.698 60L120.658 60L114.138 38.64L113.018 58.4H115.338V60H108.218V58.4H110.618L112.018 33.6H109.338ZM154.706 41.84V55.56C154.706 56.3867 154.959 57.0267 155.466 57.48C155.973 57.9333 156.679 58.16 157.586 58.16C158.493 58.16 159.373 57.7867 160.226 57.04C161.079 56.2933 161.506 55.32 161.506 54.12V40H167.506V55.56C167.506 56.28 167.679 56.8533 168.026 57.28C168.373 57.68 168.906 57.88 169.626 57.88C170.346 57.88 171.173 57.4933 172.106 56.72L172.826 57.68C170.693 59.6267 168.519 60.6 166.306 60.6C164.093 60.6 162.626 59.6133 161.906 57.64C160.866 58.7333 159.786 59.5067 158.666 59.96C157.573 60.3867 156.159 60.6 154.426 60.6C152.719 60.6 151.333 60.08 150.266 59.04C149.226 57.9733 148.706 56.5333 148.706 54.72V41.32C147.239 41.6933 146.119 42.3467 145.346 43.28L144.266 42.04C145.039 41.24 146.013 40.6 147.186 40.12C148.386 39.64 149.559 39.4 150.706 39.4C151.879 39.4 152.839 39.64 153.586 40.12C154.333 40.5733 154.706 41.1467 154.706 41.84ZM179.027 43.28C178.387 42.2933 178.067 41.4133 178.067 40.64C178.067 39.8667 178.361 39.1867 178.947 38.6C179.561 37.9867 180.294 37.68 181.147 37.68C182.001 37.68 182.721 37.9867 183.307 38.6C183.921 39.1867 184.227 39.8933 184.227 40.72C184.227 41.5467 183.814 42.4267 182.987 43.36C185.174 44.96 186.854 46.5333 188.027 48.08C189.201 49.6 189.787 51.3733 189.787 53.4C189.787 55.4 189.027 57.1067 187.507 58.52C185.987 59.9067 183.827 60.6 181.027 60.6C179.747 60.6 178.454 60.32 177.147 59.76C175.867 59.2 174.894 58.5067 174.227 57.68L175.147 56.72C176.321 57.6533 177.587 58.12 178.947 58.12C180.307 58.12 181.414 57.76 182.267 57.04C183.147 56.2933 183.587 55.1467 183.587 53.6C183.587 51.1467 182.681 48.5867 180.867 45.92L174.827 53.48L173.827 52.6C175.854 49.32 177.587 46.2133 179.027 43.28ZM197.133 35.48C196.519 34.84 196.213 34.08 196.213 33.2C196.213 32.32 196.519 31.5733 197.133 30.96C197.773 30.32 198.533 30 199.413 30C200.293 30 201.039 30.32 201.653 30.96C202.293 31.5733 202.613 32.32 202.613 33.2C202.613 34.08 202.293 34.84 201.653 35.48C201.039 36.0933 200.293 36.4 199.413 36.4C198.533 36.4 197.773 36.0933 197.133 35.48ZM198.653 39.4C201.159 39.4 202.413 40.48 202.413 42.64V55.56C202.413 56.28 202.586 56.8533 202.933 57.28C203.279 57.68 203.813 57.88 204.533 57.88C205.253 57.88 206.079 57.4933 207.013 56.72L207.733 57.68C205.599 59.6267 203.466 60.6 201.333 60.6C198.053 60.6 196.413 58.64 196.413 54.72V41.32C194.946 41.6933 193.826 42.3467 193.053 43.28L191.973 42.04C192.746 41.24 193.719 40.6 194.893 40.12C196.093 39.64 197.346 39.4 198.653 39.4ZM220.189 60.6C217.016 60.6 214.443 59.5867 212.469 57.56C210.523 55.5067 209.549 52.9867 209.549 50C209.549 47.0133 210.523 44.5067 212.469 42.48C214.443 40.4267 217.003 39.4 220.149 39.4C221.909 39.4 223.629 39.9067 225.309 40.92C226.989 41.9333 227.829 43.3067 227.829 45.04C227.829 45.92 227.509 46.68 226.869 47.32C226.256 47.9333 225.509 48.24 224.629 48.24C223.749 48.24 222.989 47.9333 222.349 47.32C221.736 46.68 221.429 45.96 221.429 45.16C221.429 44.36 221.643 43.68 222.069 43.12C222.496 42.56 223.056 42.1733 223.749 41.96C223.003 41.64 222.149 41.48 221.189 41.48C219.403 41.48 218.043 42.28 217.109 43.88C216.203 45.4533 215.749 47.4667 215.749 49.92C215.749 52.3467 216.203 54.32 217.109 55.84C218.043 57.36 219.403 58.12 221.189 58.12C223.589 58.12 225.629 57.12 227.309 55.12L228.429 55.84C227.549 57.28 226.389 58.44 224.949 59.32C223.536 60.1733 221.949 60.6 220.189 60.6ZM232.69 59.72C232.103 59.1067 231.81 58.3733 231.81 57.52C231.81 56.6667 232.103 55.9467 232.69 55.36C233.303 54.7467 234.037 54.44 234.89 54.44C235.743 54.44 236.463 54.7467 237.05 55.36C237.663 55.9467 237.97 56.6667 237.97 57.52C237.97 58.3733 237.663 59.1067 237.05 59.72C236.463 60.3067 235.743 60.6 234.89 60.6C234.037 60.6 233.303 60.3067 232.69 59.72ZM256.187 33.6H255.787V58.4H259.787V60H245.787V58.4H249.787V33.6H249.387C247.627 33.6 246.413 33.7733 245.747 34.12C245.107 34.4667 244.667 35.24 244.427 36.44L243.627 40.4H242.067L240.987 33.68C240.987 33.1467 241.107 32.76 241.347 32.52C241.587 32.2533 241.84 32.1067 242.107 32.08C242.4 32.0267 242.84 32 243.427 32L262.147 32C262.733 32 263.16 32.0267 263.427 32.08C263.72 32.1067 263.987 32.2533 264.227 32.52C264.467 32.76 264.587 33.1467 264.587 33.68L263.507 40.4H261.947L261.147 36.44C260.907 35.24 260.453 34.4667 259.787 34.12C259.147 33.7733 257.947 33.6 256.187 33.6ZM275.631 31.84V42.12C276.565 41.1067 277.565 40.4 278.631 40C279.725 39.6 281.098 39.4 282.751 39.4C284.431 39.4 285.791 39.9333 286.831 41C287.898 42.04 288.431 43.4667 288.431 45.28V55.56C288.431 56.28 288.605 56.8533 288.951 57.28C289.298 57.68 289.831 57.88 290.551 57.88C291.271 57.88 292.098 57.4933 293.031 56.72L293.751 57.68C291.618 59.6267 289.485 60.6 287.351 60.6C284.071 60.6 282.431 58.64 282.431 54.72V44.44C282.431 43.6133 282.178 42.9733 281.671 42.52C281.165 42.0667 280.458 41.84 279.551 41.84C278.645 41.84 277.765 42.2133 276.911 42.96C276.058 43.7067 275.631 44.68 275.631 45.88V60H269.631V31.32C268.165 31.6933 267.045 32.3467 266.271 33.28L265.191 32.04C265.965 31.24 266.938 30.6 268.111 30.12C269.311 29.64 270.485 29.4 271.631 29.4C272.805 29.4 273.765 29.64 274.511 30.12C275.258 30.5733 275.631 31.1467 275.631 31.84ZM303.925 50.76C305.658 50.6 306.992 49.9467 307.925 48.8C308.885 47.6267 309.365 46.4533 309.365 45.28C309.365 44.08 309.098 43.16 308.565 42.52C308.058 41.88 307.272 41.56 306.205 41.56C305.165 41.56 304.165 42.3067 303.205 43.8C302.245 45.2933 301.765 47.2933 301.765 49.8C301.765 52.3067 302.218 54.32 303.125 55.84C304.032 57.36 305.325 58.12 307.005 58.12C309.565 58.12 311.738 57.12 313.525 55.12L314.645 55.84C313.738 57.28 312.538 58.44 311.045 59.32C309.552 60.1733 307.872 60.6 306.005 60.6C302.832 60.6 300.298 59.56 298.405 57.48C296.512 55.3733 295.565 52.84 295.565 49.88C295.565 46.92 296.565 44.44 298.565 42.44C300.592 40.4133 303.392 39.4 306.965 39.4C309.312 39.4 311.152 39.9467 312.485 41.04C313.818 42.1333 314.485 43.52 314.485 45.2C314.485 46.88 313.738 48.44 312.245 49.88C310.778 51.2933 308.832 52 306.405 52C305.578 52 304.778 51.9067 304.005 51.72L303.925 50.76ZM332.552 39.4C333.352 39.4 333.752 40.16 333.752 41.68V55.56C333.752 56.28 333.925 56.8533 334.272 57.28C334.619 57.68 335.152 57.88 335.872 57.88C336.592 57.88 337.419 57.4933 338.352 56.72L339.072 57.68C336.939 59.6267 334.805 60.6 332.672 60.6C329.392 60.6 327.752 58.64 327.752 54.72V43.48C326.499 43.9867 324.979 44.3333 323.192 44.52C322.979 46.9733 322.272 49.4267 321.072 51.88L319.432 51.4C320.179 49.5067 320.579 47.2533 320.632 44.64C319.619 44.64 318.792 44.3467 318.152 43.76C317.539 43.1733 317.232 42.4533 317.232 41.6C317.232 40.72 317.525 39.9867 318.112 39.4C318.725 38.7867 319.459 38.48 320.312 38.48C321.192 38.48 321.925 38.7867 322.512 39.4C323.099 40.0133 323.392 40.8 323.392 41.76H324.152C326.259 41.76 328.499 41.1733 330.872 40C331.645 39.6 332.205 39.4 332.552 39.4ZM362.157 40V55.56C362.157 56.28 362.331 56.8533 362.677 57.28C363.024 57.68 363.557 57.88 364.277 57.88C364.997 57.88 365.824 57.4933 366.757 56.72L367.477 57.68C365.344 59.6267 363.211 60.6 361.077 60.6C358.544 60.6 356.984 59.4133 356.397 57.04C355.011 59.4133 352.971 60.6 350.277 60.6C347.211 60.6 344.877 59.6133 343.277 57.64C341.677 55.64 340.877 53.1067 340.877 50.04C340.877 46.9467 341.731 44.4 343.437 42.4C345.171 40.4 347.584 39.4 350.677 39.4C353.051 39.4 354.877 40.3467 356.157 42.24V40H362.157ZM348.197 43.92C347.451 45.4133 347.077 47.44 347.077 50C347.077 52.56 347.451 54.5867 348.197 56.08C348.944 57.5733 350.077 58.32 351.597 58.32C353.144 58.32 354.317 57.5733 355.117 56.08C355.944 54.56 356.357 52.5333 356.357 50C356.357 47.4667 355.944 45.4533 355.117 43.96C354.317 42.44 353.144 41.68 351.597 41.68C350.077 41.68 348.944 42.4267 348.197 43.92ZM371.636 40C374.089 40 376.209 40.68 377.996 42.04C379.409 40.28 381.249 39.4 383.516 39.4C386.582 39.4 388.916 40.4 390.516 42.4C392.116 44.3733 392.916 46.9067 392.916 50C392.916 53.0667 392.049 55.6 390.316 57.6C388.609 59.6 386.209 60.6 383.116 60.6C380.822 60.6 378.996 59.5733 377.636 57.52V70H371.636V41.6C370.436 41.6 369.369 41.8 368.436 42.2L367.876 40.72C369.022 40.24 370.276 40 371.636 40ZM385.596 56.08C386.342 54.5867 386.716 52.56 386.716 50C386.716 47.44 386.342 45.4133 385.596 43.92C384.849 42.4267 383.702 41.68 382.156 41.68C380.636 41.68 379.462 42.44 378.636 43.96C377.836 45.4533 377.436 47.4667 377.436 50C377.436 52.5333 377.836 54.56 378.636 56.08C379.462 57.5733 380.636 58.32 382.156 58.32C383.702 58.32 384.849 57.5733 385.596 56.08ZM396.024 42.04C396.797 41.24 397.771 40.6 398.944 40.12C400.144 39.64 401.317 39.4 402.464 39.4C403.637 39.4 404.597 39.64 405.344 40.12C406.091 40.5733 406.464 41.1467 406.464 41.84V53.96C406.464 54.8133 406.731 55.4667 407.264 55.92C407.797 56.3467 408.464 56.56 409.264 56.56C410.971 56.56 412.424 55.8267 413.624 54.36C414.851 52.8933 415.464 51.0133 415.464 48.72C415.464 47.44 415.211 46.0933 414.704 44.68C414.224 45 413.611 45.16 412.864 45.16C412.117 45.16 411.437 44.8667 410.824 44.28C410.237 43.6667 409.944 42.9333 409.944 42.08C409.944 41.2267 410.237 40.5067 410.824 39.92C411.437 39.3067 412.197 39 413.104 39C414.011 39 414.784 39.3467 415.424 40.04C416.091 40.7067 416.571 41.6 416.864 42.72C417.344 44.6667 417.584 46.8267 417.584 49.2C417.584 51.5467 417.304 53.9067 416.744 56.28C416.211 58.6533 415.491 60.6933 414.584 62.4C413.704 64.1067 412.704 65.5867 411.584 66.84C409.291 69.3467 406.957 70.6 404.584 70.6C403.944 70.6 403.411 70.4533 402.984 70.16C402.584 69.8933 402.117 69.3867 401.584 68.64L399.504 65.76L400.544 64.68C401.824 64.8933 402.944 65 403.904 65C406.891 65 409.331 64.0533 411.224 62.16C413.117 60.2667 414.611 57.1867 415.704 52.92C414.051 57.5067 411.011 59.8 406.584 59.8C404.877 59.8 403.424 59.2267 402.224 58.08C401.051 56.9067 400.464 55.2533 400.464 53.12V41.32C398.997 41.6933 397.877 42.3467 397.104 43.28L396.024 42.04Z" fill="#100B00"/>
<path d="M61.007 31.7785C60.446 26.9707 59.8536 21.8944 59.8536 16H65.1464C65.1464 21.8282 64.5568 26.898 63.9965 31.7112C63.5401 35.6336 63.1035 39.3857 63.0224 43.2389C65.68 40.4668 68.0048 37.5275 70.4401 34.4485C73.4427 30.6523 76.6136 26.644 80.7813 22.4761L84.5239 26.2187C80.4027 30.3399 76.4004 33.5077 72.601 36.5152L72.5974 36.5179C69.5026 38.9679 66.542 41.3114 63.7611 43.9776C67.6001 43.8965 71.3223 43.4622 75.2213 43.0072C80.0291 42.446 85.1056 41.8536 91 41.8536V47.1464C85.172 47.1464 80.1022 46.5566 75.2892 45.9965L75.2857 45.9962C71.3641 45.54 67.6132 45.1036 63.7611 45.0224C66.5313 47.678 69.4691 50.0018 72.5461 52.4354L72.551 52.4395C76.3473 55.4424 80.3558 58.6131 84.5239 62.7813L80.7813 66.5239C76.6601 62.4028 73.4924 58.4009 70.4854 54.6017L70.4783 54.5919L70.4723 54.584C68.0254 51.494 65.6847 48.5382 63.0224 45.7611C63.1035 49.6143 63.5401 53.3663 63.9965 57.2888C64.5568 62.102 65.1464 67.1717 65.1464 73H59.8536C59.8536 67.1056 60.446 62.0294 61.007 57.2215L61.0082 57.2137C61.4626 53.3175 61.8965 49.5975 61.9776 45.7611C59.3153 48.5382 56.9746 51.494 54.5277 54.584L54.5217 54.5919L54.5146 54.6017C51.5075 58.4009 48.3399 62.4028 44.2187 66.5239L40.4761 62.7813C44.6442 58.6131 48.6527 55.4424 52.449 52.4395L52.4539 52.4354C55.5309 50.0018 58.4687 47.678 61.2389 45.0224C57.3857 45.1038 53.6335 45.5402 49.7108 45.9965C44.8978 46.5566 39.828 47.1464 34 47.1464V41.8536C39.8944 41.8536 44.971 42.446 49.7787 43.0072C53.6777 43.4622 57.3999 43.8965 61.2389 43.9776C58.4568 41.3104 55.4951 38.9662 52.399 36.5152C48.5996 33.5077 44.5972 30.3399 40.4761 26.2187L44.2187 22.4761C48.3864 26.644 51.5573 30.6523 54.5599 34.4485C56.9952 37.5273 59.32 40.4667 61.9776 43.2386C61.8965 39.4023 61.4626 35.6825 61.0082 31.7863L61.007 31.7785Z" fill="#FFA589"/>
</svg>
